<mxfile host="65bd71144e">
    <diagram name="ML Service Architecture" id="0VYd3ZhjOqzvBuPvEnK3">
        <mxGraphModel dx="1438" dy="637" grid="1" gridSize="10" guides="1" tooltips="1" connect="1" arrows="1" fold="1" page="1" pageScale="1" pageWidth="827" pageHeight="1169" background="#ffffff" math="0" shadow="0">
            <root>
                <mxCell id="0"/>
                <mxCell id="1" parent="0"/>
                <mxCell id="lakefs" value="LakeFS: Dataset Storage" style="shape=cylinder;whiteSpace=wrap;html=1;" parent="1" vertex="1">
                    <mxGeometry x="80" y="20" width="160" height="60" as="geometry"/>
                </mxCell>
                <mxCell id="53" style="edgeStyle=none;html=1;entryX=0;entryY=0.5;entryDx=0;entryDy=0;" edge="1" parent="1" source="2" target="12">
                    <mxGeometry relative="1" as="geometry"/>
                </mxCell>
                <mxCell id="71" value="Save metrics/model" style="edgeLabel;html=1;align=center;verticalAlign=middle;resizable=0;points=[];" vertex="1" connectable="0" parent="53">
                    <mxGeometry x="-0.1131" y="-1" relative="1" as="geometry">
                        <mxPoint as="offset"/>
                    </mxGeometry>
                </mxCell>
                <mxCell id="2" value="AirFlow" style="swimlane;startSize=23;" vertex="1" parent="1">
                    <mxGeometry x="10" y="150" width="840" height="130" as="geometry"/>
                </mxCell>
                <mxCell id="45" value="" style="edgeStyle=none;html=1;" edge="1" parent="2" source="3" target="4">
                    <mxGeometry relative="1" as="geometry"/>
                </mxCell>
                <mxCell id="3" value="preprocessing" style="rounded=0;whiteSpace=wrap;html=1;" vertex="1" parent="2">
                    <mxGeometry x="10" y="40" width="120" height="60" as="geometry"/>
                </mxCell>
                <mxCell id="46" value="" style="edgeStyle=none;html=1;" edge="1" parent="2" source="4" target="5">
                    <mxGeometry relative="1" as="geometry"/>
                </mxCell>
                <mxCell id="4" value="build features" style="rounded=0;whiteSpace=wrap;html=1;" vertex="1" parent="2">
                    <mxGeometry x="150" y="40" width="120" height="60" as="geometry"/>
                </mxCell>
                <mxCell id="44" value="" style="edgeStyle=none;html=1;" edge="1" parent="2" source="5" target="6">
                    <mxGeometry relative="1" as="geometry"/>
                </mxCell>
                <mxCell id="5" value="select features" style="rounded=0;whiteSpace=wrap;html=1;" vertex="1" parent="2">
                    <mxGeometry x="290" y="40" width="120" height="60" as="geometry"/>
                </mxCell>
                <mxCell id="47" value="" style="edgeStyle=none;html=1;" edge="1" parent="2" source="6" target="7">
                    <mxGeometry relative="1" as="geometry"/>
                </mxCell>
                <mxCell id="6" value="make dataset" style="rounded=0;whiteSpace=wrap;html=1;" vertex="1" parent="2">
                    <mxGeometry x="430" y="40" width="120" height="60" as="geometry"/>
                </mxCell>
                <mxCell id="49" value="" style="edgeStyle=none;html=1;" edge="1" parent="2" source="7" target="48">
                    <mxGeometry relative="1" as="geometry"/>
                </mxCell>
                <mxCell id="7" value="train model" style="rounded=0;whiteSpace=wrap;html=1;" vertex="1" parent="2">
                    <mxGeometry x="570" y="40" width="120" height="60" as="geometry"/>
                </mxCell>
                <mxCell id="48" value="evalute" style="rounded=0;whiteSpace=wrap;html=1;" vertex="1" parent="2">
                    <mxGeometry x="710" y="40" width="120" height="60" as="geometry"/>
                </mxCell>
                <mxCell id="12" value="MLFlow" style="swimlane;startSize=23;" vertex="1" parent="1">
                    <mxGeometry x="1006" y="115" width="290" height="200" as="geometry"/>
                </mxCell>
                <mxCell id="22" value="traking metrics" style="rounded=0;whiteSpace=wrap;html=1;" vertex="1" parent="12">
                    <mxGeometry x="85" y="40" width="120" height="60" as="geometry"/>
                </mxCell>
                <mxCell id="23" value="traking models" style="rounded=0;whiteSpace=wrap;html=1;" vertex="1" parent="12">
                    <mxGeometry x="85" y="110" width="120" height="60" as="geometry"/>
                </mxCell>
                <mxCell id="24" value="PostgreSQL: Metrics" style="shape=cylinder;whiteSpace=wrap;html=1;" vertex="1" parent="1">
                    <mxGeometry x="890" y="10" width="180" height="60" as="geometry"/>
                </mxCell>
                <mxCell id="25" value="Minio: Models" style="shape=cylinder;whiteSpace=wrap;html=1;" vertex="1" parent="1">
                    <mxGeometry x="1230" y="10" width="180" height="60" as="geometry"/>
                </mxCell>
                <mxCell id="28" value="Docker/Kubernetes" style="swimlane;startSize=23;" vertex="1" parent="1">
                    <mxGeometry x="17" y="315" width="810" height="520" as="geometry"/>
                </mxCell>
                <mxCell id="31" value="App" style="swimlane;startSize=23;" vertex="1" parent="28">
                    <mxGeometry x="70" y="160" width="290" height="200" as="geometry"/>
                </mxCell>
                <mxCell id="32" value="RestApi" style="rounded=0;whiteSpace=wrap;html=1;" vertex="1" parent="31">
                    <mxGeometry x="85" y="40" width="120" height="60" as="geometry"/>
                </mxCell>
                <mxCell id="33" value="UI" style="rounded=0;whiteSpace=wrap;html=1;" vertex="1" parent="31">
                    <mxGeometry x="85" y="110" width="120" height="60" as="geometry"/>
                </mxCell>
                <mxCell id="82" style="edgeStyle=elbowEdgeStyle;html=1;entryX=1;entryY=0.5;entryDx=0;entryDy=0;exitX=1;exitY=0.5;exitDx=0;exitDy=0;" edge="1" parent="28" source="34" target="35">
                    <mxGeometry relative="1" as="geometry">
                        <mxPoint x="460" y="50" as="sourcePoint"/>
                        <Array as="points">
                            <mxPoint x="780" y="100"/>
                        </Array>
                    </mxGeometry>
                </mxCell>
                <mxCell id="85" value="Send Task" style="edgeLabel;html=1;align=center;verticalAlign=middle;resizable=0;points=[];" vertex="1" connectable="0" parent="82">
                    <mxGeometry x="-0.7291" y="-1" relative="1" as="geometry">
                        <mxPoint as="offset"/>
                    </mxGeometry>
                </mxCell>
                <mxCell id="34" value="RabbitMQ" style="rounded=0;whiteSpace=wrap;html=1;" vertex="1" parent="28">
                    <mxGeometry x="340" y="30" width="120" height="60" as="geometry"/>
                </mxCell>
                <mxCell id="59" style="edgeStyle=orthogonalEdgeStyle;html=1;entryX=1;entryY=0.5;entryDx=0;entryDy=0;" edge="1" parent="28" source="35" target="31">
                    <mxGeometry relative="1" as="geometry"/>
                </mxCell>
                <mxCell id="79" value="Send Predict" style="edgeLabel;html=1;align=center;verticalAlign=middle;resizable=0;points=[];" vertex="1" connectable="0" parent="59">
                    <mxGeometry x="-0.1251" y="2" relative="1" as="geometry">
                        <mxPoint as="offset"/>
                    </mxGeometry>
                </mxCell>
                <mxCell id="35" value="Worker 1" style="swimlane;startSize=23;" vertex="1" parent="28">
                    <mxGeometry x="550" y="70" width="180" height="200" as="geometry"/>
                </mxCell>
                <mxCell id="36" value="Loading Model" style="rounded=0;whiteSpace=wrap;html=1;" vertex="1" parent="35">
                    <mxGeometry x="30" y="40" width="120" height="60" as="geometry"/>
                </mxCell>
                <mxCell id="37" value="Predict" style="rounded=0;whiteSpace=wrap;html=1;" vertex="1" parent="35">
                    <mxGeometry x="30" y="110" width="120" height="60" as="geometry"/>
                </mxCell>
                <mxCell id="postgres" value="PostgreSQL: Users + Predictions" style="shape=cylinder;whiteSpace=wrap;html=1;" parent="28" vertex="1">
                    <mxGeometry x="125" y="410" width="180" height="60" as="geometry"/>
                </mxCell>
                <mxCell id="57" style="edgeStyle=orthogonalEdgeStyle;html=1;entryX=0.25;entryY=1;entryDx=0;entryDy=0;" edge="1" parent="28" source="31" target="34">
                    <mxGeometry relative="1" as="geometry"/>
                </mxCell>
                <mxCell id="74" value="Send Task" style="edgeLabel;html=1;align=center;verticalAlign=middle;resizable=0;points=[];" vertex="1" connectable="0" parent="57">
                    <mxGeometry x="0.0241" y="2" relative="1" as="geometry">
                        <mxPoint as="offset"/>
                    </mxGeometry>
                </mxCell>
                <mxCell id="76" value="Worker 2" style="swimlane;startSize=23;" vertex="1" parent="28">
                    <mxGeometry x="550" y="300" width="180" height="200" as="geometry"/>
                </mxCell>
                <mxCell id="77" value="Loading Model" style="rounded=0;whiteSpace=wrap;html=1;" vertex="1" parent="76">
                    <mxGeometry x="30" y="40" width="120" height="60" as="geometry"/>
                </mxCell>
                <mxCell id="78" value="Predict" style="rounded=0;whiteSpace=wrap;html=1;" vertex="1" parent="76">
                    <mxGeometry x="30" y="110" width="120" height="60" as="geometry"/>
                </mxCell>
                <mxCell id="80" style="edgeStyle=orthogonalEdgeStyle;html=1;exitX=0;exitY=0.5;exitDx=0;exitDy=0;entryX=1;entryY=0.75;entryDx=0;entryDy=0;" edge="1" parent="28" source="76" target="31">
                    <mxGeometry relative="1" as="geometry">
                        <mxPoint x="590" y="430" as="sourcePoint"/>
                        <mxPoint x="400" y="290" as="targetPoint"/>
                    </mxGeometry>
                </mxCell>
                <mxCell id="81" value="Send Predict" style="edgeLabel;html=1;align=center;verticalAlign=middle;resizable=0;points=[];" vertex="1" connectable="0" parent="80">
                    <mxGeometry x="-0.1251" y="2" relative="1" as="geometry">
                        <mxPoint as="offset"/>
                    </mxGeometry>
                </mxCell>
                <mxCell id="84" style="edgeStyle=elbowEdgeStyle;html=1;entryX=1;entryY=0.25;entryDx=0;entryDy=0;exitX=1.001;exitY=0.187;exitDx=0;exitDy=0;exitPerimeter=0;" edge="1" parent="28" source="34" target="76">
                    <mxGeometry relative="1" as="geometry">
                        <mxPoint x="490" y="50" as="sourcePoint"/>
                        <mxPoint x="749" y="160" as="targetPoint"/>
                        <Array as="points">
                            <mxPoint x="799" y="90"/>
                        </Array>
                    </mxGeometry>
                </mxCell>
                <mxCell id="86" value="Send Tas&lt;span style=&quot;background-color: light-dark(#ffffff, var(--ge-dark-color, #121212));&quot;&gt;k&lt;/span&gt;" style="edgeLabel;html=1;align=center;verticalAlign=middle;resizable=0;points=[];" vertex="1" connectable="0" parent="84">
                    <mxGeometry x="-0.8479" y="2" relative="1" as="geometry">
                        <mxPoint as="offset"/>
                    </mxGeometry>
                </mxCell>
                <mxCell id="87" value="" style="endArrow=classic;startArrow=classic;html=1;entryX=0.5;entryY=1;entryDx=0;entryDy=0;exitX=0.5;exitY=0;exitDx=0;exitDy=0;" edge="1" parent="28" source="postgres" target="31">
                    <mxGeometry width="50" height="50" relative="1" as="geometry">
                        <mxPoint x="383" y="385" as="sourcePoint"/>
                        <mxPoint x="433" y="335" as="targetPoint"/>
                    </mxGeometry>
                </mxCell>
                <mxCell id="88" value="Read/Write Data" style="edgeLabel;html=1;align=center;verticalAlign=middle;resizable=0;points=[];" vertex="1" connectable="0" parent="87">
                    <mxGeometry x="-0.0463" relative="1" as="geometry">
                        <mxPoint as="offset"/>
                    </mxGeometry>
                </mxCell>
                <mxCell id="65" value="" style="endArrow=classic;startArrow=classic;html=1;exitX=0.487;exitY=1.009;exitDx=0;exitDy=0;exitPerimeter=0;entryX=0.5;entryY=0;entryDx=0;entryDy=0;edgeStyle=orthogonalEdgeStyle;" edge="1" parent="1" source="lakefs" target="2">
                    <mxGeometry width="50" height="50" relative="1" as="geometry">
                        <mxPoint x="290" y="100" as="sourcePoint"/>
                        <mxPoint x="340" y="50" as="targetPoint"/>
                    </mxGeometry>
                </mxCell>
                <mxCell id="66" value="Read/Write Data" style="edgeLabel;html=1;align=center;verticalAlign=middle;resizable=0;points=[];" vertex="1" connectable="0" parent="65">
                    <mxGeometry x="-0.0123" relative="1" as="geometry">
                        <mxPoint as="offset"/>
                    </mxGeometry>
                </mxCell>
                <mxCell id="67" value="" style="endArrow=classic;startArrow=classic;html=1;exitX=0.5;exitY=1;exitDx=0;exitDy=0;entryX=0.25;entryY=0;entryDx=0;entryDy=0;edgeStyle=orthogonalEdgeStyle;" edge="1" parent="1" source="24" target="12">
                    <mxGeometry width="50" height="50" relative="1" as="geometry">
                        <mxPoint x="830" y="95" as="sourcePoint"/>
                        <mxPoint x="1365" y="150" as="targetPoint"/>
                    </mxGeometry>
                </mxCell>
                <mxCell id="68" value="Read/Write Data" style="edgeLabel;html=1;align=center;verticalAlign=middle;resizable=0;points=[];" vertex="1" connectable="0" parent="67">
                    <mxGeometry x="-0.0123" relative="1" as="geometry">
                        <mxPoint as="offset"/>
                    </mxGeometry>
                </mxCell>
                <mxCell id="69" value="" style="endArrow=classic;startArrow=classic;html=1;exitX=0.5;exitY=1;exitDx=0;exitDy=0;entryX=0.5;entryY=0;entryDx=0;entryDy=0;edgeStyle=orthogonalEdgeStyle;" edge="1" parent="1" source="25" target="12">
                    <mxGeometry width="50" height="50" relative="1" as="geometry">
                        <mxPoint x="890" y="70" as="sourcePoint"/>
                        <mxPoint x="1137.5000000000002" y="115" as="targetPoint"/>
                    </mxGeometry>
                </mxCell>
                <mxCell id="70" value="Read/Write Data" style="edgeLabel;html=1;align=center;verticalAlign=middle;resizable=0;points=[];" vertex="1" connectable="0" parent="69">
                    <mxGeometry x="-0.0123" relative="1" as="geometry">
                        <mxPoint as="offset"/>
                    </mxGeometry>
                </mxCell>
                <mxCell id="72" value="" style="endArrow=classic;html=1;exitX=0.5;exitY=1;exitDx=0;exitDy=0;entryX=1;entryY=0.25;entryDx=0;entryDy=0;edgeStyle=orthogonalEdgeStyle;" edge="1" parent="1" source="12" target="28">
                    <mxGeometry width="50" height="50" relative="1" as="geometry">
                        <mxPoint x="1050" y="400" as="sourcePoint"/>
                        <mxPoint x="950" y="440" as="targetPoint"/>
                    </mxGeometry>
                </mxCell>
                <mxCell id="73" value="Loading model" style="edgeLabel;html=1;align=center;verticalAlign=middle;resizable=0;points=[];" vertex="1" connectable="0" parent="72">
                    <mxGeometry x="-0.0682" y="1" relative="1" as="geometry">
                        <mxPoint as="offset"/>
                    </mxGeometry>
                </mxCell>
            </root>
        </mxGraphModel>
    </diagram>
</mxfile>